<svg width="133" height="46" viewBox="0 0 133 46" fill="none" xmlns="http://www.w3.org/2000/svg">
<circle cx="6.5" cy="6.5" r="6.5" fill="#FCD240"/>
<path d="M9.81818 14.7273V38H3.5V14.7273H9.81818ZM19.1761 28.1818V38H12.9034V20.5455H18.858V23.8636H19.0398C19.4186 22.7576 20.0852 21.8902 21.0398 21.2614C22.0019 20.6326 23.1231 20.3182 24.4034 20.3182C25.6383 20.3182 26.7102 20.6023 27.6193 21.1705C28.536 21.7311 29.2443 22.5038 29.7443 23.4886C30.2519 24.4735 30.5019 25.5985 30.4943 26.8636V38H24.2216V28.1818C24.2292 27.3182 24.0095 26.6402 23.5625 26.1477C23.1231 25.6553 22.5095 25.4091 21.7216 25.4091C21.2064 25.4091 20.7557 25.5227 20.3693 25.75C19.9905 25.9697 19.6989 26.2879 19.4943 26.7045C19.2898 27.1136 19.1837 27.6061 19.1761 28.1818ZM39.875 38V14.7273H56.6477V19.8182H46.1932V23.8182H55.7841V28.9091H46.1932V32.9091H56.6023V38H39.875ZM68.2812 44.9091C66.5312 44.9091 65.0312 44.6591 63.7812 44.1591C62.5388 43.6667 61.5729 42.9848 60.8835 42.1136C60.2017 41.25 59.8191 40.2576 59.7358 39.1364H65.7812C65.8419 39.5076 65.9934 39.8068 66.2358 40.0341C66.4782 40.2614 66.7888 40.4242 67.1676 40.5227C67.554 40.6288 67.9858 40.6818 68.4631 40.6818C69.2737 40.6818 69.9441 40.4848 70.4744 40.0909C71.0123 39.697 71.2812 38.9848 71.2812 37.9545V35H71.0994C70.8722 35.5909 70.5237 36.0947 70.054 36.5114C69.5843 36.9205 69.0199 37.2348 68.3608 37.4545C67.7017 37.6667 66.9782 37.7727 66.1903 37.7727C64.9479 37.7727 63.804 37.4848 62.7585 36.9091C61.7206 36.3333 60.8873 35.4205 60.2585 34.1705C59.6373 32.9205 59.3267 31.2879 59.3267 29.2727C59.3267 27.1667 59.6525 25.4545 60.304 24.1364C60.9631 22.8182 61.8116 21.8523 62.8494 21.2386C63.8949 20.625 64.9934 20.3182 66.1449 20.3182C67.0085 20.3182 67.7661 20.4697 68.4176 20.7727C69.0691 21.0682 69.6146 21.4659 70.054 21.9659C70.4934 22.4583 70.8267 23 71.054 23.5909H71.1903V20.5455H77.4631V37.9545C77.4631 39.4318 77.0805 40.6856 76.3153 41.7159C75.5578 42.7538 74.4896 43.5455 73.1108 44.0909C71.732 44.6364 70.1222 44.9091 68.2812 44.9091ZM68.5085 33.3182C69.0843 33.3182 69.5767 33.1591 69.9858 32.8409C70.4025 32.5152 70.7206 32.053 70.9403 31.4545C71.1676 30.8485 71.2812 30.1212 71.2812 29.2727C71.2812 28.4091 71.1676 27.6705 70.9403 27.0568C70.7206 26.4356 70.4025 25.9621 69.9858 25.6364C69.5767 25.303 69.0843 25.1364 68.5085 25.1364C67.9328 25.1364 67.4403 25.303 67.0312 25.6364C66.6297 25.9621 66.3191 26.4356 66.0994 27.0568C65.8873 27.6705 65.7812 28.4091 65.7812 29.2727C65.7812 30.1364 65.8873 30.8712 66.0994 31.4773C66.3191 32.0758 66.6297 32.5341 67.0312 32.8523C67.4403 33.1629 67.9328 33.3182 68.5085 33.3182ZM84.4716 44.5455C83.7519 44.5455 83.0663 44.4886 82.4148 44.375C81.7633 44.2689 81.1913 44.1212 80.6989 43.9318L82.0625 39.4773C82.5777 39.6591 83.0473 39.7765 83.4716 39.8295C83.9034 39.8826 84.2708 39.8523 84.5739 39.7386C84.8845 39.625 85.108 39.4091 85.2443 39.0909L85.3807 38.7727L79.2443 20.5455H85.7898L88.608 32.6364H88.7898L91.6534 20.5455H98.2443L91.8807 39.4545C91.5625 40.4167 91.1004 41.2803 90.4943 42.0455C89.8958 42.8182 89.108 43.428 88.1307 43.875C87.1534 44.322 85.9337 44.5455 84.4716 44.5455ZM100.028 44.5455V20.5455H106.256V23.5909H106.392C106.619 23 106.953 22.4583 107.392 21.9659C107.831 21.4659 108.377 21.0682 109.028 20.7727C109.68 20.4697 110.438 20.3182 111.301 20.3182C112.453 20.3182 113.547 20.625 114.585 21.2386C115.631 21.8523 116.479 22.8182 117.131 24.1364C117.79 25.4545 118.119 27.1667 118.119 29.2727C118.119 31.2879 117.805 32.9583 117.176 34.2841C116.555 35.6098 115.722 36.5985 114.676 37.25C113.638 37.9015 112.498 38.2273 111.256 38.2273C110.438 38.2273 109.706 38.0947 109.062 37.8295C108.426 37.5568 107.881 37.1894 107.426 36.7273C106.979 36.2576 106.634 35.7273 106.392 35.1364H106.301V44.5455H100.028ZM106.165 29.2727C106.165 30.1212 106.275 30.8561 106.494 31.4773C106.722 32.0909 107.04 32.5682 107.449 32.9091C107.866 33.2424 108.362 33.4091 108.938 33.4091C109.513 33.4091 110.002 33.2462 110.403 32.9205C110.813 32.5871 111.123 32.1136 111.335 31.5C111.555 30.8788 111.665 30.1364 111.665 29.2727C111.665 28.4091 111.555 27.6705 111.335 27.0568C111.123 26.4356 110.813 25.9621 110.403 25.6364C110.002 25.303 109.513 25.1364 108.938 25.1364C108.362 25.1364 107.866 25.303 107.449 25.6364C107.04 25.9621 106.722 26.4356 106.494 27.0568C106.275 27.6705 106.165 28.4091 106.165 29.2727ZM131.156 20.5455V25.0909H119.656V20.5455H131.156ZM121.884 16.3636H128.156V32.3864C128.156 32.6288 128.198 32.8333 128.281 33C128.365 33.1591 128.493 33.2803 128.668 33.3636C128.842 33.4394 129.065 33.4773 129.338 33.4773C129.527 33.4773 129.747 33.4545 129.997 33.4091C130.255 33.3636 130.444 33.3258 130.565 33.2955L131.474 37.7045C131.194 37.7879 130.793 37.8902 130.27 38.0114C129.755 38.1326 129.141 38.2121 128.429 38.25C126.99 38.3258 125.781 38.178 124.804 37.8068C123.827 37.428 123.092 36.8333 122.599 36.0227C122.107 35.2121 121.868 34.197 121.884 32.9773V16.3636Z" fill="white"/>
</svg>
