<svg width="16" height="14" viewBox="0 0 16 14" fill="none" xmlns="http://www.w3.org/2000/svg">
<path d="M8.00004 13.4333C7.79337 13.4333 7.59337 13.4066 7.42671 13.3466C4.88004 12.4733 0.833374 9.37332 0.833374 4.79332C0.833374 2.45998 2.72004 0.56665 5.04004 0.56665C6.16671 0.56665 7.22004 1.00665 8.00004 1.79332C8.78004 1.00665 9.83337 0.56665 10.96 0.56665C13.28 0.56665 15.1667 2.46665 15.1667 4.79332C15.1667 9.37998 11.12 12.4733 8.57337 13.3466C8.40671 13.4066 8.20671 13.4333 8.00004 13.4333ZM5.04004 1.56665C3.27337 1.56665 1.83337 3.01332 1.83337 4.79332C1.83337 9.34665 6.21337 11.88 7.75337 12.4066C7.87337 12.4466 8.13337 12.4466 8.25337 12.4066C9.78671 11.88 14.1734 9.35332 14.1734 4.79332C14.1734 3.01332 12.7334 1.56665 10.9667 1.56665C9.95337 1.56665 9.01337 2.03998 8.40671 2.85998C8.22004 3.11332 7.79337 3.11332 7.60671 2.85998C6.98671 2.03332 6.05337 1.56665 5.04004 1.56665Z" fill="#292D32"/>
</svg>
